<svg width="24" height="24" viewBox="0 0 24 24" fill="none" xmlns="http://www.w3.org/2000/svg">
<path d="M10 5.125H5.75C5.40482 5.125 5.125 5.40482 5.125 5.75V18.25C5.125 18.5952 5.40482 18.875 5.75 18.875H18.25C18.5952 18.875 18.875 18.5952 18.875 18.25V14" stroke="#BDBDBD" stroke-width="1.5" stroke-linecap="round" stroke-linejoin="round"/>
<path d="M12.086 15.5157H9.03125C8.88621 15.5157 8.74711 15.458 8.64455 15.3555C8.54199 15.2529 8.48438 15.1138 8.48438 14.9688V11.9141C8.48437 11.8422 8.49852 11.7711 8.526 11.7048C8.55349 11.6384 8.59377 11.5781 8.64455 11.5274L16.8477 3.32424C16.9502 3.22168 17.0893 3.16406 17.2344 3.16406C17.3794 3.16406 17.5185 3.22168 17.6211 3.32424L20.6758 6.37897C20.7784 6.48152 20.836 6.62062 20.836 6.76566C20.836 6.9107 20.7784 7.0498 20.6758 7.15236L12.4727 15.3555C12.4219 15.4063 12.3616 15.4466 12.2953 15.474C12.2289 15.5015 12.1578 15.5157 12.086 15.5157Z" stroke="#BDBDBD" stroke-width="1.5" stroke-linecap="round" stroke-linejoin="round"/>
<path d="M15.0469 5.125L18.875 8.95312" stroke="#BDBDBD" stroke-width="1.5" stroke-linecap="round" stroke-linejoin="round"/>
</svg>
